# Blender v2.79 (sub 0) OBJ File: ''
# www.blender.org
mtllib cornell.mtl
o Plane.003
v -4.852151 -0.038222 4.987527
v -4.852152 -0.038222 -5.012473
v -4.852151 9.961779 4.987527
v -4.852151 9.961779 -5.012473
v -4.972363 -0.024348 4.966400
v 5.027637 -0.024347 4.966399
v -4.972363 -0.024348 -5.033600
v 5.027637 -0.024347 -5.033601
v 5.027637 9.961777 4.965932
v -4.972363 9.961779 4.965932
v 5.027636 -0.038222 4.965932
v -4.972363 -0.038221 4.965932
v -4.972363 -0.038222 -4.956811
v 5.027637 -0.038222 -4.956811
v -4.972363 9.961778 -4.956811
v 5.027637 9.961778 -4.956811
vn 1.0000 -0.0000 -0.0000
vn -0.0000 1.0000 0.0000
vn 0.0000 0.0000 1.0000
usemtl None
s off
f 1//1 2//1 4//1 3//1
f 5//2 6//2 8//2 7//2
f 9//3 10//3 12//3 11//3
f 13//3 14//3 16//3 15//3
